<svg width="500" height="500" xmlns="http://www.w3.org/2000/svg" version="1.0">
    <g fill="#1B2235" transform="translate(0 632) scale(0.1 -0.1)">
        <path d="m1541.55227,5533.32469c-385.4293,-61.1887 -724.60709,-230.79948 -996.61006,-499.17098c-449.30045,-442.27622 -618.88934,-1085.29432 -444.89554,-1688.59343c30.83434,-106.27511 80.38954,-232.94646 91.40181,-232.94646c3.30368,0 62.76992,331.70716 132.14719,738.55835c69.37727,405.7777 132.14719,758.95458 139.85578,785.79173c19.82208,64.40916 75.98463,126.67134 148.66559,166.39033c51.75765,27.91064 70.4785,32.20458 147.56436,32.20458c109.02143,0 170.69012,-26.83715 246.67475,-108.42208l51.75765,-54.74778l171.79135,-562.50665c94.70549,-309.16396 181.70239,-592.56426 192.71465,-629.06278c11.01227,-37.57201 23.12576,-67.62962 26.42944,-67.62962c3.30368,0 73.78218,223.28508 157.4754,497.024c237.86494,778.27733 232.35881,764.32201 281.91401,816.92282c24.22698,24.69018 69.37727,60.11521 101.31285,77.29099c50.65642,26.83715 69.37727,31.13109 146.46314,31.13109c69.37727,0 98.00917,-5.36743 134.34964,-24.69018c66.0736,-34.35155 122.23615,-84.80539 147.56436,-134.18575c16.5184,-30.05761 63.87114,-283.4003 170.69012,-908.16913c165.18399,-960.76994 168.48767,-984.38663 111.22389,-1057.38368c-44.04906,-55.82127 -109.02143,-84.80539 -189.41097,-84.80539c-111.22389,0 -185.00607,46.1599 -220.24532,137.4062c-8.80981,23.61669 -58.36501,327.41322 -110.12266,675.22268c-51.75765,347.80945 -95.80671,634.43021 -99.11039,637.65067c-6.60736,6.44092 9.91104,61.1887 -198.22079,-652.67947c-100.21162,-345.66248 -188.30975,-641.94461 -194.91711,-659.12039c-36.34048,-89.09934 -120.0337,-138.47969 -234.56126,-139.55318c-98.00917,-1.07349 -172.89257,32.20458 -216.94164,95.54025c-20.92331,31.13109 -79.28831,214.69719 -218.04286,687.03102c-202.62569,694.54542 -199.32201,681.66359 -204.82814,665.5613c-2.20245,-5.36743 -46.25152,-295.20864 -98.00917,-641.94461c-100.21162,-674.14919 -109.02143,-712.79468 -175.09503,-765.3955l-34.13802,-26.83715l95.80671,-89.09934c344.68392,-324.19276 872.17145,-502.39143 1349.00257,-459.452c321.55816,30.05761 592.4599,121.30391 847.94447,288.76773l105.71775,68.7031l67.17482,-21.46972c161.88031,-52.60081 251.07966,-67.62962 438.28818,-72.99705c143.15946,-4.29394 207.0306,-2.14697 297.33118,12.88183c734.51813,119.15694 1264.20812,727.82349 1264.20812,1454.57349c0,302.72304 -98.00917,604.3726 -273.10419,842.68649l-62.76992,85.87888l-5.50613,-694.54542c-5.50613,-679.51662 -5.50613,-694.54542 -28.63189,-723.52954c-45.15029,-59.04173 -77.08586,-74.07053 -158.57663,-74.07053c-83.69322,0 -117.83124,17.17578 -161.88031,80.51145c-25.32821,34.35155 -25.32821,41.86595 -25.32821,339.22157l0,304.87002l-400.84648,0l-401.9477,0l-3.30368,-302.72304c-3.30368,-283.4003 -4.40491,-305.9435 -26.42944,-341.36854c-66.0736,-111.64254 -255.48457,-112.71603 -325.96307,-2.14697l-25.32821,39.71898l0,772.9099c0,859.86226 -4.40491,811.55539 73.78218,866.30318c29.73312,20.39623 50.65642,24.69018 115.62879,24.69018c93.60426,0 127.74228,-18.24926 166.28521,-91.24631c23.12576,-46.1599 24.22698,-57.96824 24.22698,-334.92762l0,-287.69424l399.74525,2.14697l398.64402,3.22046l5.50613,300.57607c5.50613,273.73892 7.70859,304.87002 26.42944,332.78065c12.11349,18.24926 28.63189,37.57201 38.54293,44.01292c14.31595,10.73486 6.60736,18.24926 -42.94784,49.38035c-286.31891,179.27216 -637.61019,259.7836 -970.18062,224.35857c-112.32511,-11.80835 -280.81278,-49.38035 -363.40477,-81.58493c-39.64416,-15.0288 -40.74538,-13.95532 -105.71775,31.13109c-73.78218,52.60081 -222.44777,137.4062 -299.53363,169.61078c-94.70549,40.79247 -265.39561,94.46677 -373.31581,117.00997c-142.05823,30.05761 -479.03356,37.57201 -624.39547,15.0288z"/>
    </g>
</svg>
