<svg viewBox="0 0 180 180" fill="none" xmlns="http://www.w3.org/2000/svg">
	<path fill-rule="evenodd" clip-rule="evenodd"
	      d="m45.4369,20.97945c0,-2.6516 2.15,-4.8015 4.801,-4.8015l20.106,0c2.652,0 4.802,2.1499 4.802,4.8015l0,20.1056c0,0.104 -0.003,0.207 -0.01,0.309l0.011,-0.011c0,4.503 4.502,4.503 4.502,4.503l-0.01,0.011c0.102,-0.007 0.205,-0.01 0.308,-0.01l20.106,0c0.105,0 0.208,0.003 0.311,0.01l-0.011,-0.011c4.504,0 4.503,-4.502 4.503,-4.502l0.008,0.008l-0.006,-0.125l-0.002,-0.07l-0.001,-0.112l0,-20.1056c0,-2.6516 2.149,-4.8015 4.801,-4.8015l20.106,0c2.652,0 4.801,2.1499 4.801,4.8015l0,20.1056c0,0.105 -0.002,0.208 -0.009,0.312l0.013,-0.014c0,4.503 4.502,4.503 4.502,4.503l-0.01,0.01c0.101,-0.006 0.203,-0.009 0.306,-0.009l20.106,0c2.651,0 4.801,2.15 4.801,4.801l0,20.106c0,2.652 -2.15,4.802 -4.801,4.802l-20.106,0c-2.652,0 -4.802,-2.15 -4.802,-4.802l0,-20.106l0,-0.144c-0.001,-0.052 0,-0.104 0.004,-0.157c0.001,-4.503 -4.503,-4.501 -4.503,-4.501l0.009,-0.009l-0.128,0.006l-0.183,0.004l-20.106,0c-0.068,0 -0.135,-0.002 -0.202,-0.005l-0.105,-0.005l0.008,0.009c-4.501,0 -4.501,4.501 -4.501,4.501l-0.012,-0.011c0.007,0.104 0.011,0.207 0.011,0.312l0,20.106c0,2.652 -2.15,4.802 -4.802,4.802l-20.106,0c-2.651,0 -4.801,-2.15 -4.801,-4.802l0,-20.106l0.002,-0.158l-0.001,-0.143c0.001,-4.503 -4.503,-4.501 -4.503,-4.501l0.009,-0.009c-0.102,0.006 -0.205,0.01 -0.309,0.01l-20.106,0c-0.104,0 -0.207,-0.004 -0.309,-0.01l0.008,0.009c-4.501,0 -4.501,4.501 -4.501,4.501l-0.008,-0.008c0.007,0.102 0.009,0.205 0.009,0.309l0,20.106c0,2.652 -2.15,4.802 -4.801,4.802l-20.1064,0c-2.6515,0 -4.8014,-2.15 -4.8014,-4.802l0,-20.106c0,-2.651 2.1499,-4.801 4.8014,-4.801l20.1064,0l0.158,0.003l0.15,0.007l-0.011,-0.011c4.504,0 4.503,-4.502 4.503,-4.502l0.01,0.011c-0.007,-0.102 -0.009,-0.206 -0.009,-0.31l0,-20.1056zm114.034,113.1336c2.651,0 4.801,-2.15 4.801,-4.802l0,-20.106c0,-2.651 -2.15,-4.801 -4.801,-4.801l-20.106,0c-2.652,0 -4.802,2.15 -4.802,4.801l0,20.106c0,0.103 -0.002,0.199 0.004,0.301c0.001,4.503 -4.503,4.501 -4.503,4.501l0.01,0.01c-0.103,-0.007 -0.208,-0.01 -0.312,-0.01l-20.106,0c-0.103,0 -0.206,0.003 -0.308,0.01l0.009,-0.01c-4.501,0 -4.501,-4.501 -4.501,-4.501l-0.011,0.011c0.007,-0.104 0.01,-0.207 0.01,-0.312l0,-20.106c0,-2.651 -2.15,-4.801 -4.802,-4.801l-20.106,0c-2.651,0 -4.801,2.15 -4.801,4.801l0,20.106l0.001,0.078l0.003,0.13l0.005,0.101l-0.008,-0.008c0.001,4.503 -4.503,4.501 -4.503,4.501l0.01,0.01c-0.102,-0.007 -0.205,-0.01 -0.31,-0.01l-20.106,0c-0.104,0 -0.207,0.003 -0.31,0.01l0.009,-0.01c-4.501,0 -4.501,-4.501 -4.501,-4.501l-0.008,0.008c0.007,-0.102 0.009,-0.205 0.009,-0.309l0,-20.106c0,-2.651 -2.15,-4.801 -4.801,-4.801l-20.1064,0c-2.6515,0 -4.8014,2.15 -4.8014,4.801l0,20.106c0,2.652 2.1499,4.802 4.8014,4.802l20.1064,0c0.103,0 0.206,-0.004 0.308,-0.01l-0.011,0.01c4.504,0 4.503,4.502 4.503,4.502l0.01,-0.011l-0.007,0.133l-0.002,0.177l0,20.106c0,2.652 2.15,4.802 4.801,4.802l20.106,0c2.652,0 4.802,-2.15 4.802,-4.802l0,-20.106c0,-0.103 -0.003,-0.207 -0.01,-0.309l0.011,0.011c0,-4.503 4.502,-4.503 4.502,-4.503l-0.01,-0.01c0.102,0.006 0.205,0.01 0.308,0.01l20.106,0c0.105,0 0.208,-0.004 0.311,-0.01l-0.011,0.01c4.504,0 4.503,4.502 4.503,4.502l0.008,-0.008c-0.006,0.101 -0.009,0.204 -0.009,0.307l0,20.106c0,2.652 2.149,4.802 4.801,4.802l20.106,0c2.652,0 4.801,-2.15 4.801,-4.802l0,-20.106c0,-0.105 -0.003,-0.208 -0.01,-0.312l0.014,0.014c0,-4.503 4.502,-4.503 4.502,-4.503l-0.01,-0.01c0.101,0.007 0.203,0.01 0.306,0.01l20.106,0z"
	      fill="#C6F118"/>
</svg>
