<svg xmlns="http://www.w3.org/2000/svg" viewBox="0 0 180 180">
    <path
            fill="#C6F118"
            d="m37.50783,8.6984c0,-3.12336 2.53216,-5.6558 5.65498,-5.6558l23.68364,0c3.12418,0 5.65635,2.53244 5.65635,5.6558l0,23.68351c0,0.12223 -0.00273,0.24378 -0.01094,0.36396l0.01231,-0.01313c0,5.30305 5.30359,5.30305 5.30359,5.30305l-0.01231,0.01367c0.12032,-0.0082 0.242,-0.01231 0.36232,-0.01231l23.68364,0c0.12305,0 0.24474,0.0041 0.36643,0.01231l-0.01231,-0.01367c5.30496,0.00137 5.30359,-5.30236 5.30359,-5.30236l0.00957,0.00957l-0.00684,-0.14698l-0.00273,-0.08286l-0.00137,-0.13126l0,-23.68351c0,-3.12336 2.53216,-5.6558 5.65635,-5.6558l23.68364,0c3.12282,0 5.65498,2.53244 5.65498,5.6558l0,23.68351c0,0.12292 -0.00273,0.24515 -0.01094,0.3667l0.01504,-0.01586c0,5.30305 5.30359,5.30305 5.30359,5.30305l-0.01231,0.01367c0.11895,-0.0082 0.23927,-0.01231 0.36096,-0.01231l23.68364,0c3.12282,0 5.65498,2.53353 5.65498,5.65635l0,23.68364c0,3.12282 -2.53216,5.65635 -5.65498,5.65635l-23.68364,0c-3.12418,0 -5.65635,-2.53353 -5.65635,-5.65635l0,-23.68364l0,-0.16954c-0.00137,-0.06153 0,-0.12305 0.0041,-0.18458c0.00137,-5.30496 -5.30359,-5.30359 -5.30359,-5.30359l0.00957,-0.00957l-0.1504,0.00684l-0.21466,0.0041l-23.68364,0c-0.08067,0 -0.15997,-0.00137 -0.2379,-0.00547l-0.12442,-0.00547l0.00957,0.00957c-5.30223,0 -5.30223,5.30359 -5.30223,5.30359l-0.01367,-0.01367c0.0082,0.12169 0.01231,0.24474 0.01231,0.36779l0,23.68364c0,3.12282 -2.53216,5.65635 -5.65635,5.65635l-23.68364,0c-3.12282,0 -5.65498,-2.53353 -5.65498,-5.65635l0,-23.68364l0.00273,-0.18595l-0.00137,-0.16817c0.00137,-5.30496 -5.30359,-5.30359 -5.30359,-5.30359l0.00957,-0.00957c-0.12032,0.00684 -0.242,0.01094 -0.36369,0.01094l-23.68364,0c-0.12305,0 -0.24337,-0.0041 -0.36369,-0.01094l0.00957,0.00957c-5.30223,0 -5.30223,5.30359 -5.30223,5.30359l-0.00957,-0.01094c0.0082,0.12032 0.01094,0.24337 0.01094,0.36506l0,23.68364c0,3.12282 -2.53271,5.65635 -5.65621,5.65635l-23.68351,0c-3.12336,0 -5.6558,-2.53353 -5.6558,-5.65635l0,-23.68364c0,-3.12282 2.53244,-5.65635 5.6558,-5.65635l23.68351,0l0.18649,0.0041l0.17665,0.0082l-0.01231,-0.01367c5.30537,0.00137 5.304,-5.30236 5.304,-5.30236l0.01231,0.01313c-0.0082,-0.12018 -0.01094,-0.24241 -0.01094,-0.36465l0,-23.68351l0.00003,0.00001zm134.3249,133.26405c3.12282,0 5.65498,-2.53216 5.65498,-5.65498l0,-23.68364c0,-3.12418 -2.53216,-5.65635 -5.65498,-5.65635l-23.68364,0c-3.12418,0 -5.65635,2.53216 -5.65635,5.65635l0,23.68364c0,0.12032 -0.00273,0.2338 0.0041,0.35275c0.00137,5.30496 -5.30359,5.30359 -5.30359,5.30359l0.01094,0.01094c-0.12169,-0.0082 -0.24474,-0.01231 -0.36643,-0.01231l-23.68364,0c-0.12169,0 -0.24337,0.0041 -0.36369,0.01231l0.01094,-0.01094c-5.30223,0 -5.30223,-5.30359 -5.30223,-5.30359l-0.01231,0.01367c0.0082,-0.12169 0.01094,-0.24474 0.01094,-0.36643l0,-23.68364c0,-3.12418 -2.53216,-5.65635 -5.65635,-5.65635l-23.68364,0c-3.12282,0 -5.65498,2.53216 -5.65498,5.65635l0,23.68364l0.00137,0.09161l0.0041,0.15177l0.00547,0.12032l-0.00957,-0.01094c0.00137,5.30496 -5.30359,5.30359 -5.30359,5.30359l0.01094,0.01094c-0.12032,-0.0082 -0.242,-0.01231 -0.36506,-0.01231l-23.68364,0c-0.12305,0 -0.24337,0.0041 -0.36506,0.01231l0.01094,-0.01094c-5.30223,0 -5.30223,-5.30359 -5.30223,-5.30359l-0.00957,0.01094c0.0082,-0.12032 0.01094,-0.242 0.01094,-0.36369l0,-23.68364c0,-3.12418 -2.53271,-5.65635 -5.65621,-5.65635l-23.68351,0c-3.12336,0 -5.6558,2.53216 -5.6558,5.65635l0,23.68364c0,3.12282 2.53244,5.65498 5.6558,5.65498l23.68351,0c0.12155,0 0.2431,-0.0041 0.36314,-0.01094l-0.01231,0.01231c5.30537,-0.00137 5.304,5.30223 5.304,5.30223l0.01231,-0.01231l-0.0082,0.15587l-0.00273,0.20919l0,23.68364c0,3.12282 2.53216,5.65498 5.65498,5.65498l23.68364,0c3.12418,0 5.65635,-2.53216 5.65635,-5.65498l0,-23.68364c0,-0.12305 -0.00273,-0.24474 -0.01094,-0.36506l0.01231,0.01367c0,-5.30359 5.30359,-5.30359 5.30359,-5.30359l-0.01231,-0.01231c0.12032,0.00684 0.242,0.01094 0.36232,0.01094l23.68364,0c0.12305,0 0.24474,-0.0041 0.36643,-0.01094l-0.01231,0.01231c5.30496,-0.00137 5.30359,5.30223 5.30359,5.30223l0.00957,-0.00957c-0.00684,0.11895 -0.01094,0.24064 -0.01094,0.36232l0,23.68364c0,3.12282 2.53216,5.65498 5.65635,5.65498l23.68364,0c3.12282,0 5.65498,-2.53216 5.65498,-5.65498l0,-23.68364c0,-0.12442 -0.0041,-0.24611 -0.01231,-0.36779l0.01641,0.01641c0,-5.30359 5.30359,-5.30359 5.30359,-5.30359l-0.01231,-0.01231c0.11895,0.0082 0.23927,0.01094 0.36096,0.01094l23.68364,0l0.00002,-0.00001z"/>

</svg>
